<svg width="148" height="47" viewBox="0 0 148 47" fill="none" xmlns="http://www.w3.org/2000/svg">
<path d="M9.72439 30.2375C8.69228 30.2375 7.64405 30.2053 6.57969 30.1408C5.51533 30.1085 4.46709 30.0279 3.43498 29.8989C1.14499 29.7054 0 28.9635 0 27.6734C0 27.0283 0.258027 26.2542 0.774081 25.3512C1.99971 23.1257 3.25759 20.9163 4.54773 18.7231C5.83786 16.4976 7.11187 14.2721 8.36975 12.0466C8.75679 11.3371 9.25672 10.4501 9.86953 9.38573C10.4823 8.32137 11.0952 7.30539 11.708 6.33779C11.9983 5.88624 12.4175 5.43469 12.9659 4.98315C13.5142 4.49935 14.0786 4.19294 14.6592 4.06392C13.9818 4.09618 13.111 4.14456 12.0466 4.20907C11.0145 4.27357 9.95017 4.40259 8.85355 4.59611C7.78919 4.75737 6.82159 5.03153 5.95075 5.41857C5.11216 5.77335 4.51547 6.27328 4.16069 6.91835C4.03167 7.20863 3.91879 7.49891 3.82202 7.78919C3.72526 8.07947 3.67688 8.36975 3.67688 8.66003C3.67688 9.40186 3.93491 9.93404 4.45097 10.2566C4.48322 10.2566 4.49935 10.2888 4.49935 10.3533C4.49935 10.4178 4.43484 10.4823 4.30583 10.5469C4.20907 10.6114 4.11231 10.6275 4.01555 10.5952C3.72527 10.434 3.37048 10.0469 2.95118 9.43411C2.53189 8.78905 2.27386 8.25686 2.1771 7.83757C2.08034 7.45053 2.03196 7.09574 2.03196 6.77321C2.03196 5.93462 2.30612 5.28955 2.85442 4.83801C3.40273 4.35421 4.09618 4.01555 4.93477 3.82202C5.77335 3.59625 6.62807 3.46724 7.49891 3.43498C8.36975 3.37048 9.14383 3.33822 9.82115 3.33822C11.5306 3.33822 13.24 3.3221 14.9494 3.28984C16.6589 3.22534 18.3522 3.19308 20.0293 3.19308C20.7712 3.19308 21.4969 3.19308 22.2064 3.19308C22.9483 3.19308 23.674 3.22534 24.3836 3.28984C25.1899 3.3221 25.7382 3.48336 26.0285 3.77365C26.351 4.06393 26.5123 4.41871 26.5123 4.83801C26.5123 5.35406 26.3349 5.95075 25.9801 6.62807C25.6576 7.27314 25.3512 7.86982 25.0609 8.41813C24.9319 8.67616 24.7222 8.86968 24.4319 8.99869C24.1417 9.09545 24.0288 8.99869 24.0933 8.70841C24.2545 8.06334 24.3352 7.41828 24.3352 6.77321C24.3352 6.19265 24.2223 5.67659 23.9965 5.22505C23.803 4.74125 23.4159 4.40259 22.8354 4.20907C22.2871 4.0478 21.4324 3.96717 20.2712 3.96717C19.852 3.96717 19.4165 3.98329 18.965 4.01555C18.5457 4.01555 18.1103 4.03167 17.6587 4.06392C16.3686 4.16069 15.4977 4.49935 15.0462 5.07991C13.9818 6.56356 12.9497 8.17623 11.9499 9.91791C10.9823 11.6273 10.0469 13.2561 9.14383 14.8043C9.11158 14.8688 9.09545 14.9494 9.09545 15.0462C9.09545 15.2397 9.24059 15.3365 9.53087 15.3365C10.6597 15.3365 11.8692 15.3526 13.1594 15.3849C14.4818 15.4171 15.6429 15.4171 16.6427 15.3849C16.8685 15.3526 17.2072 15.3204 17.6587 15.2881C18.1425 15.2558 18.6263 15.1913 19.1101 15.0946C19.6262 14.9978 20.0132 14.8849 20.2712 14.7559C20.4325 14.6592 20.5293 14.6108 20.5615 14.6108C20.755 14.6108 20.755 14.8043 20.5615 15.1913C20.4003 15.5461 20.11 15.917 19.6907 16.3041C19.3036 16.6589 18.8521 16.8363 18.336 16.8363C16.7556 16.8363 15.4171 16.804 14.3205 16.7395C13.2561 16.675 12.0628 16.6427 10.7404 16.6427C10.4178 16.6427 10.0792 16.6427 9.72439 16.6427C9.36961 16.6427 8.98256 16.6589 8.56327 16.6911C8.24074 16.7234 8.01496 16.8524 7.88595 17.0782C7.56342 17.6587 7.27314 18.1909 7.01511 18.6747C6.78934 19.1585 6.49905 19.7229 6.14427 20.368C5.88624 20.8518 5.56371 21.4807 5.17667 22.2548C4.82188 22.9967 4.49935 23.7707 4.20907 24.5771C3.91879 25.3512 3.77365 26.0285 3.77365 26.609C3.77365 27.6089 4.24132 28.3023 5.17667 28.6894C6.11201 29.0442 7.25701 29.2377 8.61165 29.2699C10.4823 29.2699 12.3208 29.0925 14.127 28.7378C15.9654 28.3507 17.6748 27.7218 19.2553 26.8509C20.8679 25.9478 22.271 24.7383 23.4643 23.2224C23.5288 23.1579 23.5772 23.1257 23.6095 23.1257C23.7062 23.1257 23.7707 23.2224 23.803 23.4159C23.8352 23.5772 23.8191 23.7062 23.7546 23.803C22.7548 25.0286 21.7872 26.222 20.8518 27.3831C19.9165 28.512 18.9811 29.2216 18.0458 29.5118C17.3684 29.7054 16.2718 29.8666 14.7559 29.9956C13.24 30.1569 11.5628 30.2375 9.72439 30.2375Z" fill="white"/>
<path d="M27.1189 29.9473C26.6674 29.9473 26.2803 29.786 25.9578 29.4635C25.6353 29.1409 25.474 28.5765 25.474 27.7702C25.474 27.0606 25.5224 26.222 25.6191 25.2544C25.7481 24.2868 25.9255 23.3031 26.1513 22.3032C26.3771 21.2711 26.6351 20.368 26.9254 19.5939C26.3771 20.4003 25.7643 21.2388 25.087 22.1097C24.4096 22.9483 23.8452 23.6579 23.3937 24.2384C23.2969 24.3674 23.2163 24.4319 23.1517 24.4319C23.0872 24.4319 23.055 24.3513 23.055 24.19C23.055 23.932 23.1356 23.6901 23.2969 23.4643C23.9742 22.529 24.7322 21.4646 25.5708 20.2712C26.4416 19.0779 27.1834 17.9974 27.7962 17.0298C28.151 16.9653 28.5703 16.8685 29.0541 16.7395C29.5702 16.6105 29.9411 16.4331 30.1669 16.2073C30.3281 16.1106 30.4249 16.0622 30.4571 16.0622C30.5539 16.0622 30.6023 16.1267 30.6023 16.2557C30.6023 16.3525 30.5539 16.4653 30.4571 16.5944C30.1669 17.0137 29.8443 17.6587 29.4895 18.5296C29.167 19.4004 28.8283 20.368 28.4736 21.4324C28.151 22.4967 27.8769 23.545 27.6511 24.5771C27.4576 25.5769 27.3608 26.4316 27.3608 27.1412C27.3608 27.6573 27.4414 28.0282 27.6027 28.254C27.764 28.4475 27.9736 28.5442 28.2317 28.5442C28.5864 28.5442 29.0057 28.3668 29.4895 28.0121C30.0056 27.6573 30.441 27.2864 30.7958 26.8993C31.2473 26.4155 31.7473 25.7704 32.2956 24.9641C32.8761 24.1578 33.4083 23.3031 33.8921 22.4C34.4082 21.4969 34.7952 20.6744 35.0532 19.9326C35.2468 19.4165 35.3758 18.9811 35.4403 18.6263C35.5048 18.2393 35.537 17.9329 35.537 17.7071C35.537 17.3201 35.4887 17.0459 35.3919 16.8846C35.2951 16.7234 35.2145 16.6266 35.15 16.5944C34.9565 16.5299 34.8597 16.4492 34.8597 16.3525C34.8597 16.288 34.9242 16.2396 35.0532 16.2073C35.1823 16.1428 35.3113 16.1428 35.4403 16.2073C35.8596 16.3363 36.2789 16.5299 36.6982 16.7879C37.1175 17.0137 37.3271 17.4652 37.3271 18.1425C37.3271 18.3038 37.311 18.4973 37.2787 18.7231C37.2465 18.9166 37.182 19.1424 37.0852 19.4004C36.8917 19.9165 36.4885 20.6422 35.8757 21.5775C35.2951 22.5129 34.6178 23.4966 33.8437 24.5287C33.0697 25.5608 32.2956 26.4961 31.5215 27.3347C30.7474 28.1733 30.0701 28.77 29.4895 29.1248C29.1025 29.3506 28.6993 29.5441 28.28 29.7054C27.8607 29.8666 27.4737 29.9473 27.1189 29.9473Z" fill="white"/>
<path d="M40.1305 30.044C38.8081 30.044 37.8889 29.786 37.3728 29.2699C36.8568 28.7539 36.5988 28.1249 36.5988 27.3831C36.5988 26.4478 36.8407 25.4479 37.3245 24.3836C37.8405 23.3192 38.3243 22.4161 38.7759 21.6743C39.2919 20.9002 39.9854 20.0939 40.8562 19.2553C41.727 18.4167 42.6785 17.7071 43.7106 17.1265C44.7427 16.546 45.7426 16.2557 46.7102 16.2557C47.5488 16.2557 48.1293 16.4653 48.4519 16.8846C48.7744 17.2717 48.9357 17.7394 48.9357 18.2877C48.9357 19.2875 48.6293 20.11 48.0165 20.755C47.4359 21.4001 46.7102 21.9323 45.8394 22.3516C44.9685 22.7386 44.1299 23.0612 43.3236 23.3192C42.8398 23.4482 42.2754 23.5772 41.6303 23.7062C40.9852 23.8352 40.3724 23.8998 39.7918 23.8998C39.5661 24.4803 39.3887 25.0447 39.2597 25.5931C39.1307 26.1414 39.0661 26.6413 39.0661 27.0928C39.0661 27.6411 39.1952 28.0927 39.4532 28.4475C39.7435 28.8023 40.2111 28.9797 40.8562 28.9797C41.1142 28.9797 41.4206 28.9474 41.7754 28.8829C42.1302 28.8184 42.5173 28.7216 42.9365 28.5926C43.9042 28.2701 44.8556 27.754 45.791 27.0445C46.7263 26.3349 47.581 25.5769 48.3551 24.7706C49.1615 23.932 49.7743 23.2386 50.1936 22.6902C50.2903 22.787 50.3387 22.8999 50.3387 23.0289C50.3387 23.1902 50.2258 23.4482 50 23.803C49.355 24.7061 48.5164 25.6414 47.4843 26.609C46.4522 27.5766 45.3072 28.3991 44.0493 29.0764C42.7914 29.7215 41.4851 30.044 40.1305 30.044ZM40.1789 22.9322C40.5982 22.9644 41.0659 22.9644 41.5819 22.9322C42.1302 22.8676 42.6624 22.7548 43.1784 22.5935C44.5008 22.2064 45.4523 21.5936 46.0329 20.755C46.6457 19.8842 46.9521 19.1101 46.9521 18.4328C46.9521 18.0458 46.8715 17.7232 46.7102 17.4652C46.5489 17.2072 46.2909 17.0782 45.9361 17.0782C45.0008 17.0782 44.1622 17.4329 43.4204 18.1425C42.6785 18.8198 42.0335 19.6101 41.4851 20.5131C40.9368 21.4162 40.5014 22.2226 40.1789 22.9322Z" fill="white"/>
<path d="M49.7109 30.3827C49.5819 30.3827 49.5819 30.2375 49.7109 29.9473C49.8722 29.657 50.0173 29.3344 50.1463 28.9797C50.3076 28.6249 50.4688 28.2378 50.6301 27.8185C50.9526 27.0445 51.3074 26.1736 51.6945 25.206C52.0815 24.2384 52.4524 23.3031 52.8072 22.4C53.162 21.4646 53.4684 20.6744 53.7264 20.0293C54.0167 19.352 54.2102 18.9166 54.307 18.7231C53.8554 19.2069 53.3071 19.8197 52.6621 20.5615C52.0493 21.2711 51.4687 21.9645 50.9204 22.6419C50.3721 23.3192 49.9528 23.8514 49.6625 24.2384C49.5658 24.3674 49.4851 24.4319 49.4206 24.4319C49.3561 24.4319 49.3239 24.3513 49.3239 24.19C49.3239 23.932 49.4045 23.6901 49.5658 23.4643C50.1786 22.6902 50.8559 21.8194 51.5977 20.8518C52.3718 19.8842 53.0652 18.9972 53.6781 18.1909C54.2909 17.3523 54.6779 16.804 54.8392 16.546C55.194 16.4815 55.71 16.3847 56.3873 16.2557C57.0969 16.1267 57.5807 15.9493 57.8387 15.7235C57.9355 15.6268 58.0323 15.5784 58.129 15.5784C58.1935 15.5784 58.2258 15.6429 58.2258 15.7719C58.258 15.8687 58.2258 15.9815 58.129 16.1106C57.9355 16.3363 57.5968 16.8685 57.113 17.7071C56.6615 18.5134 56.1616 19.4165 55.6133 20.4164C55.0972 21.4162 54.6134 22.3193 54.1619 23.1257C54.5489 22.6096 54.9682 22.1097 55.4197 21.6259C55.8713 21.1421 56.3067 20.6744 56.726 20.2229C57.113 19.8358 57.6452 19.352 58.3225 18.7715C58.9999 18.1909 59.7094 17.6587 60.4513 17.1749C61.1931 16.6911 61.8382 16.417 62.3865 16.3525C62.5155 16.3202 62.6284 16.3041 62.7251 16.3041C62.8541 16.3041 62.9509 16.3041 63.0154 16.3041C63.725 16.3041 64.0798 16.5621 64.0798 17.0782C64.0798 17.4652 63.8701 17.9813 63.4508 18.6263C63.2251 18.9811 62.8703 19.5778 62.3865 20.4164C61.9349 21.2227 61.4672 22.1097 60.9834 23.0773C60.5319 24.0126 60.1287 24.8996 59.7739 25.7382C59.4514 26.5445 59.2901 27.1412 59.2901 27.5283C59.2901 27.9798 59.5159 28.2056 59.9675 28.2056C60.5158 28.2056 61.1125 27.9314 61.7575 27.3831C62.4348 26.8348 63.1605 26.1414 63.9346 25.3028C64.7087 24.4319 65.4828 23.5127 66.2569 22.5451C66.3214 22.6096 66.3536 22.7225 66.3536 22.8838C66.3536 23.1095 66.273 23.3353 66.1117 23.5611C65.9827 23.7546 65.8537 23.932 65.7247 24.0933C65.4022 24.5126 64.9667 25.0447 64.4184 25.6898C63.9024 26.3026 63.3702 26.9154 62.8219 27.5283C62.2736 28.1088 61.7737 28.5765 61.3221 28.9313C60.9996 29.1571 60.5803 29.399 60.0642 29.657C59.5482 29.915 59.0321 30.044 58.5161 30.044C57.9355 30.044 57.5323 29.8989 57.3066 29.6086C57.0808 29.2861 56.9679 28.899 56.9679 28.4475C56.9679 27.9314 57.0647 27.3831 57.2582 26.8026C57.4517 26.222 57.6613 25.6737 57.8871 25.1576C58.1451 24.6093 58.3387 24.2062 58.4677 23.9481C59.0482 22.8193 59.5804 21.7549 60.0642 20.755C60.548 19.7552 60.8867 19.0456 61.0802 18.6263C61.177 18.4328 61.2253 18.2715 61.2253 18.1425C61.2253 17.9168 61.048 17.9006 60.6932 18.0941C60.3384 18.2877 59.903 18.5779 59.3869 18.965C58.9031 19.352 58.4516 19.7391 58.0323 20.1261C57.613 20.4809 57.3388 20.7228 57.2098 20.8518C56.0164 22.1097 54.9682 23.5127 54.0651 25.0609C53.1943 26.5768 52.4524 28.1411 51.8396 29.7537C51.4203 29.786 51.001 29.8989 50.5817 30.0924C50.1624 30.2859 49.8722 30.3827 49.7109 30.3827Z" fill="white"/>
<path d="M67.325 29.8021C67.0025 29.8021 66.7283 29.7376 66.5026 29.6086C66.2768 29.4796 66.1639 29.2377 66.1639 28.8829C66.1639 28.4314 66.2768 27.8992 66.5026 27.2864C66.7606 26.6735 67.0347 26.0607 67.325 25.4479C67.6153 24.8351 67.8572 24.3352 68.0507 23.9481C68.212 23.6579 68.4216 23.2063 68.6797 22.5935C68.9699 21.9484 69.2602 21.2872 69.5505 20.6099C69.873 19.9003 70.1311 19.3036 70.3246 18.8198C70.5504 18.336 70.6632 18.0941 70.6632 18.0941C70.373 18.4167 69.9859 18.8682 69.5021 19.4488C69.0506 20.0293 68.5506 20.6422 68.0023 21.2872C67.4863 21.9 67.0025 22.4806 66.5509 23.0289C66.1316 23.5772 65.8252 23.9804 65.6317 24.2384C65.535 24.3674 65.4543 24.4319 65.3898 24.4319C65.3253 24.4319 65.2931 24.3513 65.2931 24.19C65.2931 23.932 65.3737 23.6901 65.535 23.4643C65.922 22.9805 66.3897 22.4 66.938 21.7226C67.4863 21.0131 68.0346 20.3035 68.5829 19.5939C69.1635 18.8844 69.6634 18.2554 70.0827 17.7071C69.8246 17.7071 69.486 17.7232 69.0667 17.7555C68.6797 17.7877 68.3249 17.8361 68.0023 17.9006C67.6798 17.9329 67.5024 17.949 67.4702 17.949C67.3089 17.949 67.325 17.82 67.5185 17.562C67.7121 17.3039 67.9701 17.0459 68.2926 16.7879C68.6151 16.5299 68.857 16.4008 69.0183 16.4008C69.0506 16.4008 69.3086 16.417 69.7924 16.4492C70.2762 16.4492 70.631 16.4492 70.8568 16.4492C71.5018 15.5784 72.1308 14.5785 72.7436 13.4497C73.3886 12.3208 74.0176 11.079 74.6304 9.72439C74.8884 9.69214 75.3238 9.51475 75.9367 9.19221C76.5817 8.83743 77.0817 8.48264 77.4364 8.12785C77.5977 7.96658 77.7267 7.88595 77.8235 7.88595C78.017 7.88595 78.017 8.01496 77.8235 8.27299C77.5977 8.53102 77.2107 9.07933 76.6624 9.91791C76.1141 10.7242 75.5012 11.708 74.8239 12.8691C74.1466 13.998 73.5015 15.1913 72.8887 16.4492H76.8075C77.1623 16.4492 77.3397 16.4976 77.3397 16.5944C77.3397 16.7234 77.0978 16.8524 76.614 16.9814C76.0657 17.1427 75.4851 17.2394 74.8723 17.2717C74.2917 17.3039 73.7434 17.3684 73.2274 17.4652C72.7436 17.562 72.3888 17.7716 72.163 18.0941C71.9695 18.3199 71.6953 18.8037 71.3406 19.5455C70.9858 20.2874 70.5987 21.1421 70.1794 22.1097C69.7924 23.045 69.4537 23.9965 69.1635 24.9641C68.8732 25.8995 68.6958 26.6897 68.6313 27.3347V27.5283C68.6313 27.7863 68.7119 27.9959 68.8732 28.1572C69.0344 28.3185 69.1957 28.3991 69.357 28.3991C69.7763 28.3991 70.3085 28.1411 70.9535 27.625C71.6308 27.109 72.3243 26.4961 73.0339 25.7866C73.7434 25.0447 74.3562 24.3674 74.8723 23.7546C75.0981 23.4966 75.2916 23.2547 75.4529 23.0289C75.6464 22.8031 75.7593 22.658 75.7915 22.5935C75.856 22.7225 75.8883 22.8193 75.8883 22.8838C75.8883 23.0773 75.8238 23.2869 75.6948 23.5127C75.598 23.7385 75.4851 23.932 75.3561 24.0933C74.7433 24.8996 74.0015 25.7543 73.1306 26.6574C72.2598 27.5283 71.3244 28.2701 70.3246 28.8829C69.357 29.4957 68.3571 29.8021 67.325 29.8021Z" fill="white"/>
<path d="M77.6901 29.8021C77.3675 29.8021 77.0934 29.7376 76.8676 29.6086C76.6418 29.4796 76.5289 29.2377 76.5289 28.8829C76.5289 28.4314 76.6418 27.8992 76.8676 27.2864C77.1256 26.6735 77.3998 26.0607 77.6901 25.4479C77.9803 24.8351 78.2222 24.3352 78.4158 23.9481C78.8028 23.2063 79.1737 22.4645 79.5285 21.7226C79.8833 20.9808 80.1897 20.3519 80.4477 19.8358C80.7058 19.352 80.8348 19.0295 80.8348 18.8682C80.8348 18.6102 80.6412 18.6102 80.2542 18.8682C79.8994 19.1263 79.5608 19.3843 79.2382 19.6423C78.5287 20.3196 77.7868 21.126 77.0127 22.0613C76.2387 22.9644 75.642 23.6901 75.2227 24.2384C75.1259 24.3674 75.0453 24.4319 74.9808 24.4319C74.9163 24.4319 74.884 24.3513 74.884 24.19C74.884 23.932 74.9647 23.6901 75.1259 23.4643C75.5775 22.8193 76.1096 22.1097 76.7225 21.3356C77.3353 20.5615 77.9642 19.8197 78.6093 19.1101C79.2221 18.4651 79.851 17.8361 80.4961 17.2233C81.1412 16.6105 81.9636 16.3041 82.9635 16.3041C83.6408 16.3041 83.9795 16.5621 83.9795 17.0782C83.9795 17.5297 83.786 18.0458 83.3989 18.6263C83.1731 18.9811 82.8184 19.5778 82.3346 20.4164C81.8508 21.255 81.3508 22.1742 80.8348 23.1741C80.351 24.1417 79.9317 25.0447 79.5769 25.8833C79.2221 26.7219 79.0447 27.3347 79.0447 27.7218C79.0447 28.1733 79.2705 28.3991 79.722 28.3991C80.0768 28.3991 80.5122 28.2217 81.0283 27.8669C81.5443 27.4799 82.0765 27.0283 82.6248 26.5123C83.6247 25.5447 84.5278 24.4964 85.3341 23.3676C86.1727 22.2064 86.8823 21.0937 87.4628 20.0293C88.0757 18.965 88.5595 18.0941 88.9142 17.4168C88.9787 17.2878 89.0433 17.1427 89.1078 16.9814C89.2045 16.7879 89.3497 16.675 89.5432 16.6427C89.7367 16.6105 90.156 16.5944 90.8011 16.5944C91.4461 16.5944 92.0428 16.4653 92.5911 16.2073H92.6879C92.7846 16.2073 92.833 16.2557 92.833 16.3525C92.833 16.6105 92.6234 16.804 92.2041 16.933C91.817 17.062 91.3655 17.4491 90.8494 18.0941C90.3656 18.7392 89.8818 19.5294 89.398 20.4648C88.9142 21.3679 88.4788 22.3032 88.0918 23.2708C87.7047 24.2384 87.4145 25.1254 87.2209 25.9317C87.0274 26.738 86.979 27.3347 87.0758 27.7218C87.2048 28.1733 87.4306 28.3991 87.7531 28.3991C88.1724 28.3991 88.753 28.1411 89.4948 27.625C90.2689 27.109 91.0591 26.4961 91.8654 25.7866C92.6718 25.0447 93.333 24.3674 93.849 23.7546C94.0748 23.4966 94.2844 23.2386 94.4779 22.9805C94.6715 22.7225 94.8005 22.5612 94.865 22.4967C94.8972 22.529 94.9295 22.5935 94.9617 22.6902C94.994 22.7548 95.0101 22.8193 95.0101 22.8838C94.9779 23.1095 94.8972 23.3353 94.7682 23.5611C94.6392 23.7546 94.4941 23.932 94.3328 24.0933C93.72 24.8996 92.9782 25.7543 92.1073 26.6574C91.2687 27.5283 90.3495 28.2701 89.3497 28.8829C88.3821 29.4957 87.3822 29.8021 86.3501 29.8021C86.0276 29.8021 85.6566 29.7215 85.2374 29.5602C84.8503 29.399 84.6568 29.0442 84.6568 28.4959C84.6568 28.0766 84.7697 27.5121 84.9955 26.8026C85.2212 26.0607 85.4631 25.335 85.7212 24.6255C86.0114 23.8836 86.2533 23.3353 86.4469 22.9805C86.0276 23.5933 85.5115 24.2868 84.8987 25.0609C84.3181 25.8027 83.7214 26.4639 83.1086 27.0445C82.3023 27.8185 81.4315 28.4797 80.4961 29.028C79.593 29.5441 78.6577 29.8021 77.6901 29.8021Z" fill="white"/>
<path d="M100.553 29.8021C100.231 29.8021 99.9567 29.7376 99.731 29.6086C99.5052 29.4796 99.3923 29.2377 99.3923 28.8829C99.3923 28.4314 99.5052 27.9153 99.731 27.3347C99.9567 26.7542 100.215 26.1897 100.505 25.6414C100.795 25.0609 101.053 24.5932 101.279 24.2384C100.15 25.4318 98.973 26.5607 97.7474 27.625C97.1346 28.1411 96.4572 28.6249 95.7154 29.0764C94.9736 29.528 94.1834 29.7537 93.3448 29.7537C93.0223 29.7537 92.7965 29.657 92.6675 29.4635C92.5385 29.2377 92.474 28.9797 92.474 28.6894C92.474 28.5281 92.4901 28.4152 92.5223 28.3507C92.6836 27.0928 93.0868 25.7866 93.7318 24.4319C94.3769 23.0773 95.1671 21.8033 96.1025 20.6099C97.0378 19.4165 97.9893 18.4489 98.9569 17.7071C100.053 16.8685 101.263 16.4492 102.585 16.4492H108.149C108.31 16.4492 108.391 16.5137 108.391 16.6427C108.391 16.9008 108.246 17.0298 107.956 17.0298C107.633 17.0298 107.311 17.2394 106.988 17.6587C106.665 18.0458 106.424 18.3683 106.262 18.6263C106.036 18.9811 105.682 19.5778 105.198 20.4164C104.714 21.255 104.214 22.1742 103.698 23.1741C103.214 24.1417 102.795 25.0447 102.44 25.8833C102.085 26.7219 101.908 27.3347 101.908 27.7218C101.908 28.1733 102.134 28.3991 102.585 28.3991C103.069 28.3991 103.617 28.1733 104.23 27.7218C104.843 27.2702 105.456 26.7219 106.069 26.0769C106.714 25.3995 107.294 24.7383 107.81 24.0933C108.359 23.416 108.794 22.8838 109.117 22.4967C109.31 22.6903 109.294 22.9644 109.068 23.3192C108.875 23.6417 108.697 23.8998 108.536 24.0933C107.891 24.9319 107.149 25.8027 106.311 26.7058C105.472 27.5766 104.553 28.3185 103.553 28.9313C102.585 29.5118 101.586 29.8021 100.553 29.8021ZM95.3284 28.1088C95.7154 28.1088 96.2476 27.8347 96.9249 27.2864C97.6345 26.7058 98.3924 25.9962 99.1988 25.1576C100.005 24.2868 100.763 23.3837 101.473 22.4484C102.182 21.4807 102.763 20.6099 103.214 19.8358C103.698 19.0295 103.94 18.4167 103.94 17.9974C103.94 17.6426 103.827 17.4007 103.601 17.2717C103.408 17.1427 103.15 17.0782 102.827 17.0782C102.311 17.0782 101.747 17.2717 101.134 17.6587C100.553 18.0135 100.086 18.3683 99.731 18.7231C99.3439 19.0779 98.8762 19.6423 98.3279 20.4164C97.8119 21.1582 97.2958 21.9807 96.7798 22.8838C96.2637 23.7869 95.8283 24.6577 95.4735 25.4963C95.1187 26.3349 94.9413 27.0122 94.9413 27.5283C94.9413 27.9153 95.0703 28.1088 95.3284 28.1088Z" fill="white"/>
<path d="M111.388 29.7537C110.42 29.7537 109.759 29.528 109.404 29.0764C109.05 28.5926 108.872 28.0121 108.872 27.3347C108.872 26.4316 109.066 25.464 109.453 24.4319C109.872 23.3998 110.211 22.5935 110.469 22.0129C110.049 22.4645 109.646 22.8999 109.259 23.3192C108.872 23.7385 108.598 24.0449 108.437 24.2384C108.34 24.3674 108.259 24.4319 108.195 24.4319C108.13 24.4319 108.098 24.3513 108.098 24.19C108.098 23.932 108.179 23.6901 108.34 23.4643C108.792 22.8838 109.308 22.271 109.888 21.6259C110.469 20.9808 111.033 20.3035 111.581 19.5939C112.226 18.4006 112.936 17.0137 113.71 15.4332C114.516 13.8206 115.339 12.1756 116.178 10.4985C117.048 8.78904 117.887 7.22476 118.693 5.80561C119.532 4.35421 120.274 3.19308 120.919 2.32224C121.467 2.09647 121.983 1.80619 122.467 1.4514C122.983 1.09662 123.483 0.774081 123.967 0.4838C124.483 0.161267 125.015 0 125.563 0C125.918 0 126.176 0.0967598 126.337 0.29028C126.531 0.483801 126.66 0.709575 126.724 0.9676C126.757 1.06436 126.773 1.24176 126.773 1.49978C126.773 2.24161 126.515 3.1447 125.999 4.20907C125.515 5.27343 124.934 6.32166 124.257 7.35377C123.612 8.35363 123.048 9.17609 122.564 9.82115C121.274 11.6273 119.951 13.2723 118.597 14.7559C117.242 16.2073 116.016 17.4329 114.92 18.4328C113.855 19.4004 113.081 20.11 112.597 20.5615C112.372 20.9808 112.097 21.5453 111.775 22.2548C111.485 22.9322 111.227 23.6579 111.001 24.4319C110.775 25.1738 110.662 25.8672 110.662 26.5123C110.662 27.0606 110.791 27.5283 111.049 27.9153C111.307 28.2701 111.743 28.4475 112.356 28.4475C112.452 28.4475 112.549 28.4475 112.646 28.4475C112.743 28.4475 112.855 28.4314 112.984 28.3991C113.533 28.3023 114.129 27.9959 114.775 27.4799C115.42 26.9638 116.065 26.3671 116.71 25.6898C117.355 25.0125 117.935 24.3674 118.451 23.7546C118.677 23.4966 118.887 23.2547 119.08 23.0289C119.274 22.7709 119.403 22.5935 119.467 22.4967C119.693 22.7225 119.677 23.0128 119.419 23.3676C119.193 23.6901 119 23.9643 118.838 24.19C118.613 24.4803 118.29 24.8835 117.871 25.3995C117.452 25.8833 116.968 26.4155 116.419 26.9961C115.807 27.6089 115.049 28.2217 114.146 28.8345C113.242 29.4473 112.323 29.7537 111.388 29.7537ZM113.42 18.6263C114.42 17.7877 115.678 16.5944 117.194 15.0462C118.742 13.4658 120.258 11.5628 121.741 9.33735C121.903 9.07933 122.161 8.6439 122.515 8.03109C122.902 7.41828 123.289 6.72483 123.676 5.95075C124.096 5.14441 124.451 4.37033 124.741 3.6285C125.031 2.85442 125.176 2.19323 125.176 1.64492C125.176 1.12887 125.031 0.870841 124.741 0.870841C124.386 0.870841 123.918 1.17725 123.338 1.79006C122.66 2.49964 121.886 3.54787 121.016 4.93477C120.177 6.28941 119.29 7.80532 118.355 9.48249C117.419 11.1597 116.516 12.8046 115.645 14.4173C114.807 16.0299 114.065 17.433 113.42 18.6263Z" fill="white"/>
<path d="M121.735 29.7537C120.767 29.7537 120.106 29.528 119.751 29.0764C119.396 28.5926 119.219 28.0121 119.219 27.3347C119.219 26.4316 119.413 25.464 119.8 24.4319C120.219 23.3998 120.558 22.5935 120.816 22.0129C120.396 22.4645 119.993 22.8999 119.606 23.3192C119.219 23.7385 118.945 24.0449 118.784 24.2384C118.687 24.3674 118.606 24.4319 118.542 24.4319C118.477 24.4319 118.445 24.3513 118.445 24.19C118.445 23.932 118.526 23.6901 118.687 23.4643C119.138 22.8838 119.654 22.271 120.235 21.6259C120.816 20.9808 121.38 20.3035 121.928 19.5939C122.573 18.4006 123.283 17.0137 124.057 15.4332C124.863 13.8206 125.686 12.1756 126.524 10.4985C127.395 8.78904 128.234 7.22476 129.04 5.80561C129.879 4.35421 130.621 3.19308 131.266 2.32224C131.814 2.09647 132.33 1.80619 132.814 1.4514C133.33 1.09662 133.83 0.774081 134.314 0.4838C134.83 0.161267 135.362 0 135.91 0C136.265 0 136.523 0.0967598 136.684 0.29028C136.878 0.483801 137.007 0.709575 137.071 0.9676C137.104 1.06436 137.12 1.24176 137.12 1.49978C137.12 2.24161 136.862 3.1447 136.346 4.20907C135.862 5.27343 135.281 6.32166 134.604 7.35377C133.959 8.35363 133.394 9.17609 132.911 9.82115C131.62 11.6273 130.298 13.2723 128.943 14.7559C127.589 16.2073 126.363 17.4329 125.267 18.4328C124.202 19.4004 123.428 20.11 122.944 20.5615C122.719 20.9808 122.444 21.5453 122.122 22.2548C121.832 22.9322 121.574 23.6579 121.348 24.4319C121.122 25.1738 121.009 25.8672 121.009 26.5123C121.009 27.0606 121.138 27.5283 121.396 27.9153C121.654 28.2701 122.09 28.4475 122.702 28.4475C122.799 28.4475 122.896 28.4475 122.993 28.4475C123.089 28.4475 123.202 28.4314 123.331 28.3991C123.88 28.3023 124.476 27.9959 125.121 27.4799C125.766 26.9638 126.412 26.3671 127.057 25.6898C127.702 25.0125 128.282 24.3674 128.798 23.7546C129.024 23.4966 129.234 23.2547 129.427 23.0289C129.621 22.7709 129.75 22.5935 129.814 22.4967C130.04 22.7225 130.024 23.0128 129.766 23.3676C129.54 23.6901 129.347 23.9643 129.185 24.19C128.96 24.4803 128.637 24.8835 128.218 25.3995C127.798 25.8833 127.315 26.4155 126.766 26.9961C126.154 27.6089 125.396 28.2217 124.492 28.8345C123.589 29.4473 122.67 29.7537 121.735 29.7537ZM123.767 18.6263C124.767 17.7877 126.025 16.5944 127.54 15.0462C129.089 13.4658 130.604 11.5628 132.088 9.33735C132.249 9.07933 132.507 8.6439 132.862 8.03109C133.249 7.41828 133.636 6.72483 134.023 5.95075C134.443 5.14441 134.797 4.37033 135.088 3.6285C135.378 2.85442 135.523 2.19323 135.523 1.64492C135.523 1.12887 135.378 0.870841 135.088 0.870841C134.733 0.870841 134.265 1.17725 133.685 1.79006C133.007 2.49964 132.233 3.54787 131.362 4.93477C130.524 6.28941 129.637 7.80532 128.702 9.48249C127.766 11.1597 126.863 12.8046 125.992 14.4173C125.154 16.0299 124.412 17.433 123.767 18.6263Z" fill="white"/>
<path d="M123.905 46.59C122.68 46.59 121.503 46.2997 120.374 45.7192C119.213 45.1709 118.358 44.3161 117.81 43.155C117.616 42.7357 117.487 42.2842 117.423 41.8004C117.358 41.3488 117.326 40.8973 117.326 40.4457V39.9136C117.326 39.6555 117.358 39.4136 117.423 39.1879C117.487 38.9943 117.648 38.8976 117.906 38.8976C117.971 38.8976 118.003 38.9298 118.003 38.9943C118.003 39.1879 117.987 39.3814 117.955 39.5749C117.922 39.7684 117.906 39.9781 117.906 40.2038C117.906 41.6875 118.39 42.8164 119.358 43.5904C120.293 44.3645 121.47 44.7516 122.89 44.7516C123.47 44.7516 124.067 44.6871 124.68 44.558C125.292 44.429 125.873 44.2516 126.421 44.0259C128.453 43.155 130.211 41.9133 131.695 40.3006C133.211 38.7202 134.533 36.9301 135.662 34.9304C136.791 32.9307 137.807 30.8987 138.71 28.8345C139.226 27.6089 139.677 26.4155 140.064 25.2544C140.484 24.0933 140.855 23.045 141.177 22.1097C140.855 22.5612 140.435 23.1095 139.919 23.7546C139.403 24.3997 138.887 25.0286 138.371 25.6414C137.855 26.222 137.404 26.6897 137.016 27.0445C136.21 27.8185 135.339 28.4797 134.404 29.028C133.501 29.5441 132.566 29.8021 131.598 29.8021C131.275 29.8021 131.001 29.7376 130.775 29.6086C130.55 29.4796 130.437 29.2377 130.437 28.8829C130.437 28.4314 130.55 27.8992 130.775 27.2864C131.033 26.6735 131.308 26.0607 131.598 25.4479C131.888 24.8351 132.13 24.3352 132.324 23.9481C132.711 23.2063 133.082 22.4645 133.436 21.7226C133.791 20.9808 134.098 20.3519 134.356 19.8358C134.614 19.352 134.743 19.0295 134.743 18.8682C134.743 18.6102 134.549 18.6102 134.162 18.8682C133.807 19.1263 133.469 19.3843 133.146 19.6423C132.437 20.3196 131.695 21.126 130.921 22.0613C130.147 22.9644 129.55 23.6901 129.131 24.2384C129.034 24.3674 128.953 24.4319 128.889 24.4319C128.824 24.4319 128.792 24.3513 128.792 24.19C128.792 23.932 128.873 23.6901 129.034 23.4643C129.485 22.8193 130.018 22.1097 130.63 21.3356C131.243 20.5615 131.872 19.8197 132.517 19.1101C133.13 18.4651 133.759 17.8361 134.404 17.2233C135.049 16.6105 135.871 16.3041 136.871 16.3041C137.549 16.3041 137.887 16.5621 137.887 17.0782C137.887 17.5297 137.694 18.0458 137.307 18.6263C137.081 18.9811 136.726 19.5778 136.242 20.4164C135.759 21.255 135.259 22.1742 134.743 23.1741C134.259 24.1417 133.84 25.0447 133.485 25.8833C133.13 26.7219 132.953 27.3347 132.953 27.7218C132.953 28.1733 133.178 28.3991 133.63 28.3991C133.985 28.3991 134.42 28.2217 134.936 27.8669C135.452 27.4799 135.984 27.0283 136.533 26.5123C137.468 25.6092 138.323 24.6093 139.097 23.5127C139.903 22.4161 140.597 21.3679 141.177 20.368C141.274 20.2067 141.435 19.9165 141.661 19.4972C141.919 19.0779 142.177 18.6747 142.435 18.2877C142.725 17.9006 142.951 17.6749 143.112 17.6103C143.274 17.5458 143.596 17.3684 144.08 17.0782C144.564 16.7879 145.048 16.5944 145.531 16.4976C145.983 16.4008 146.322 16.3525 146.547 16.3525C146.902 16.3525 147.08 16.4492 147.08 16.6427C147.08 16.9008 146.934 17.0298 146.644 17.0298C146.289 17.0298 145.967 17.1265 145.677 17.3201C145.386 17.4813 145.16 17.691 144.999 17.949C144.709 18.3683 144.29 19.1263 143.741 20.2229C143.225 21.3195 142.645 22.5935 142 24.0449C141.387 25.464 140.774 26.9154 140.161 28.3991C139.548 29.8505 138.984 31.189 138.468 32.4146C137.694 34.2531 136.807 36.0431 135.807 37.7848C134.807 39.5588 133.63 41.1392 132.275 42.5261C130.953 43.9452 129.372 45.058 127.534 45.8643C126.437 46.3481 125.228 46.59 123.905 46.59Z" fill="white"/>
</svg>
